<?xml version="1.0" standalone="no"?>
<!DOCTYPE svg PUBLIC "-//W3C//DTD SVG 20010904//EN"
 "http://www.w3.org/TR/2001/REC-SVG-20010904/DTD/svg10.dtd">
<svg version="1.0" xmlns="http://www.w3.org/2000/svg"
 width="300.000000pt" height="300.000000pt" viewBox="0 0 300.000000 300.000000"
 preserveAspectRatio="xMidYMid meet">
<metadata>
Created by potrace 1.11, written by Peter Selinger 2001-2013
</metadata>
<g transform="translate(0.000000,300.000000) scale(0.100000,-0.100000)"
fill="#000000" stroke="none">
<path d="M1264 2765 c-13 -25 -14 -36 -5 -53 6 -12 18 -22 25 -22 11 0 10 -13
-5 -65 -10 -36 -18 -69 -19 -73 0 -4 -12 -10 -26 -14 -82 -22 -85 -108 -4
-108 25 0 27 -5 34 -105 3 -44 10 -96 16 -115 5 -19 10 -36 10 -36 0 -1 -16
-11 -35 -23 -19 -11 -35 -26 -35 -33 0 -7 -20 -24 -43 -38 -102 -61 -203 -197
-237 -322 -7 -27 -20 -50 -29 -53 -31 -10 -73 -54 -86 -91 -22 -64 9 -127 69
-142 30 -8 31 -10 58 -133 14 -68 49 -199 76 -291 l49 -167 -42 -39 c-24 -21
-50 -53 -59 -70 -22 -42 -44 -62 -68 -62 -35 0 -102 -39 -125 -73 -69 -101
-62 -206 17 -284 30 -29 31 -33 31 -114 0 -76 -15 -147 -46 -222 -7 -16 26
-17 651 -15 l659 3 0 62 0 62 17 -32 c9 -18 17 -39 18 -48 1 -39 32 -49 148
-49 l111 0 -40 74 c-37 70 -66 140 -74 179 -2 10 -6 26 -9 35 -16 54 -14 70
20 107 76 85 77 209 4 298 -58 69 -136 110 -210 111 -34 0 -49 23 -50 72 0 38
-36 239 -45 254 -6 10 -66 271 -73 320 -4 25 -7 93 -7 151 0 96 3 109 25 143
37 55 83 71 215 75 42 2 54 12 55 46 3 98 -54 247 -110 292 -64 51 -203 81
-358 77 -112 -3 -140 -7 -244 -30 -71 -16 -77 -16 -82 8 -2 7 -6 20 -9 28 -10
23 -47 163 -47 176 0 6 14 17 30 24 17 7 35 21 41 31 13 25 4 24 -21 -1 -11
-11 -29 -20 -40 -20 -17 0 -20 7 -20 45 0 44 0 44 27 34 15 -6 33 -15 40 -21
8 -7 13 -7 13 0 0 14 -46 42 -70 42 -19 0 -21 5 -19 53 3 63 7 77 24 77 40 0
50 73 15 102 -36 29 -85 21 -106 -17z m-6 -280 c-1 -37 -5 -45 -20 -45 -54 0
-76 45 -35 73 42 30 57 22 55 -28z"/>
</g>
</svg>
